<?xml version="1.0" encoding="UTF-8"?>
<svg width="1419px" height="1525px" viewBox="0 0 1419 1525" version="1.1" xmlns="http://www.w3.org/2000/svg" xmlns:xlink="http://www.w3.org/1999/xlink">
    <!-- Generator: Sketch 62 (91390) - https://sketch.com -->
    <title>airbnb-2</title>
    <desc>Created with Sketch.</desc>
    <g id="Page-1" stroke="none" stroke-width="1" fill="none" fill-rule="evenodd">
        <g id="airbnb-2" transform="translate(0.000000, -0.500000)" fill="#FF7977" fill-rule="nonzero">
            <path d="M1418.5375,1195.5375 C1418.05,1151.7375 1407.8,1108.4875 1391.825,1067.8625 C1379.5,1036.4125 1365.1875,1005.7875 1351.2125,975.05 C1239.99748,732.67906 1123.28817,492.867137 1001.175,255.8 C984,222.675 967.1875,189.35 949.05,156.7375 C931.225,124.925 910.475,94.3 883.6125,69.4 C840.75,28.5375 783.2375,4.175 724.2125,0.5 L697.0375,0.5 C636.275,3.5 576.9625,29 533.3625,71.5 C507.4875,96.0125 487.4625,125.9 470.1125,156.825 C452.2125,188.9 435.6375,221.7 418.7875,254.3 C336.849124,413.353687 257.323345,573.638719 180.2375,735.1 C134.2875,831.725 88.725,928.5125 44.9,1026.0875 C26.725,1066.7375 10.2875,1108.775 4.1,1153.15 C-7.3625,1228.075 9.075,1306.7125 49.1,1371.05 C83.6,1426.9375 135.3875,1471.975 195.75,1497.9875 C242.937768,1518.35393 294.225898,1527.43197 345.5375,1524.5 C414.075,1520.8625 480.1625,1496.2375 538.15,1460.3 C602.8375,1420.6 658.1625,1367.8 709.675,1312.525 C757.575,1364.15 808.8375,1413.4125 868.0125,1452.025 C925.1625,1489.625 990.325,1516.85 1058.8625,1523.325 C1133.3,1531.1 1210.425,1512.65 1272.9,1471.2125 C1328.15755,1434.59821 1370.9489,1382.01814 1395.575,1320.475 C1411.43206,1280.7621 1419.23746,1238.29345 1418.5375,1195.5375 L1418.5375,1195.5375 Z M709.9875,1166.6375 C691.3,1144.6375 674.8375,1120.8375 658.3,1097.2125 C630.475,1056.4 605.175,1013.7375 584.825,968.6625 C568.15,931.2625 554.7625,892 549.5375,851.225 C545.725,818.875 546.6375,785.125 558.5125,754.4125 C569.1375,725.6125 589.5625,700.6625 615.4375,684.175 C677.0875,644.3875 764.9625,648.6875 820.825,696.95 C849.1,721.0375 865.9875,756.65 870.2375,793.25 C875.8,841.9 864.7375,890.7625 847.75,936.1375 C815.675,1020.3375 764.9,1095.8125 709.9875,1166.6375 L709.9875,1166.6375 Z M1314.9,1269.825 C1298.425,1326.6875 1258.825,1376.3625 1207.0125,1405.025 C1161.0875,1430.7125 1106.275,1439.5125 1054.5,1430.8625 C988.5625,1420.6 929.4,1385.6125 878.1375,1344.3125 C840.4625,1314.0375 806.5375,1279.4375 774.0375,1243.775 C825.35,1178.875 873.6875,1110.975 910.6125,1036.75 C942.8375,971.75 967.325,901.325 969.65,828.2375 C970.9625,781.8625 962.2375,734.6375 940.575,693.35 C912.2125,638.1875 861.4,595.8125 803.15,575.3125 C748.7375,555.875 688.25,554.1375 632.7375,569.9625 C580.3875,584.775 532.575,616.2375 499.8125,659.85 C470.975,697.875 454.5375,744.625 450.725,792.0375 C444.8625,860.325 461.975,928.45 487.8625,991.225 C526.35,1082.95 582.8375,1165.975 645.225,1242.9875 C617.09392,1275.47718 586.566707,1305.81219 553.9,1333.7375 C503.25,1376.6 445.3,1413.9125 379.65,1428.1125 C326.575,1440.025 269.3125,1434.08698 220.6375,1409.475 C163.625,1381.0625 119.85,1327.55 103.3375,1266.0375 C90.7125,1220.85 93.5125,1172.0625 108.525,1127.8 C121.0125,1091.175 137.95,1056.275 153.8,1021.0375 C263.824753,781.278408 379.22473,544.022656 499.9125,309.45 C517.9125,274.5375 535.6375,239.4625 554.6875,205.125 C570.2375,177.4625 588.325,150.3 613.8875,130.875 C641.527443,109.342539 675.718569,97.9454968 710.75,98.5875 C746.75,98.1625 782.5375,111.425 810.075,134.5625 C837.275,157.15 855.65,188.05 872.15,218.85 C909.45,288.9125 945.275,359.7875 981.1125,430.5875 C1083.39235,633.021413 1181.66979,837.452831 1275.8875,1043.7625 C1290.125,1075.8125 1305.3625,1107.6125 1314.95,1141.4375 C1326.6625,1183.15 1327.05,1228.2 1314.9,1269.825 L1314.9,1269.825 Z" id="Shape"></path>
        </g>
    </g>
</svg>