<?xml version="1.0" encoding="UTF-8"?>
<svg width="366px" height="366px" viewBox="0 0 366 366" version="1.1" xmlns="http://www.w3.org/2000/svg" xmlns:xlink="http://www.w3.org/1999/xlink">
    <!-- Generator: Sketch 62 (91390) - https://sketch.com -->
    <title>instagram</title>
    <desc>Created with Sketch.</desc>
    <defs>
        <linearGradient x1="32.6290296%" y1="-8.02088816%" x2="65.3955318%" y2="101.595696%" id="linearGradient-1">
            <stop stop-color="#4367DC" offset="0%"></stop>
            <stop stop-color="#4C62D6" offset="4.288606%"></stop>
            <stop stop-color="#6654C7" offset="11.42%"></stop>
            <stop stop-color="#8F3DAE" offset="20.45%"></stop>
            <stop stop-color="#9E35A5" offset="23.41%"></stop>
            <stop stop-color="#D42F7F" offset="45.12%"></stop>
            <stop stop-color="#D73578" offset="82.42%"></stop>
        </linearGradient>
        <linearGradient x1="73.8578442%" y1="9.88655283%" x2="22.7230523%" y2="95.8621131%" id="linearGradient-2">
            <stop stop-color="#D42F7F" offset="33.04%"></stop>
            <stop stop-color="#F7772E" offset="100%"></stop>
        </linearGradient>
        <linearGradient x1="72.7073191%" y1="-4.09336623%" x2="28.4695998%" y2="101.417105%" id="linearGradient-3">
            <stop stop-color="#9E35A5" stop-opacity="0" offset="23.41%"></stop>
            <stop stop-color="#D42F7F" stop-opacity="0.5" offset="45.12%"></stop>
            <stop stop-color="#F7772E" offset="75.24%"></stop>
            <stop stop-color="#FEF780" offset="96.24%"></stop>
        </linearGradient>
    </defs>
    <g id="Page-1" stroke="none" stroke-width="1" fill="none" fill-rule="evenodd">
        <g id="instagram" fill-rule="nonzero">
            <path d="M364.4,107.8 C363.5,88.4 360.4,75.1 355.9,63.5 C351.2,51.5 345,41.3 334.9,31.2 C324.8,21.1 314.6,14.8 302.6,10.2 C291,5.7 277.7,2.6 258.3,1.7 C238.8,0.8 232.6,0.6 183.1,0.6 C133.5,0.6 127.3,0.8 107.9,1.7 C88.5,2.6 75.2,5.7 63.6,10.2 C51.6,14.9 41.4,21.1 31.3,31.2 C21.2,41.3 14.9,51.5 10.3,63.5 C5.8,75.1 2.7,88.4 1.8,107.8 C0.9,127.3 0.7,133.5 0.7,183 C0.7,232.6 0.9,238.8 1.8,258.2 C2.7,277.6 5.8,290.9 10.3,302.5 C15,314.5 21.2,324.7 31.3,334.8 C41.4,344.9 51.6,351.2 63.6,355.8 C75.2,360.3 88.5,363.4 107.9,364.3 C127.4,365.2 133.6,365.4 183.1,365.4 C232.7,365.4 238.9,365.2 258.3,364.3 C277.7,363.4 291,360.3 302.6,355.8 C314.6,351.1 324.8,344.9 334.9,334.8 C345,324.7 351.3,314.5 355.9,302.5 C360.4,290.9 363.5,277.6 364.4,258.2 C365.3,238.7 365.5,232.5 365.5,183 C365.5,133.5 365.3,127.2 364.4,107.8 Z M331.6,256.7 C330.8,274.5 327.8,284.2 325.3,290.6 C322,299.1 318,305.2 311.6,311.6 C305.2,318 299.1,321.9 290.6,325.3 C284.2,327.8 274.5,330.8 256.7,331.6 C237.5,332.5 231.7,332.7 183,332.7 C134.3,332.7 128.5,332.5 109.3,331.6 C91.5,330.8 81.8,327.8 75.4,325.3 C66.9,322 60.8,318 54.4,311.6 C48,305.2 44.1,299.1 40.7,290.6 C38.2,284.2 35.2,274.5 34.4,256.7 C33.5,237.5 33.3,231.7 33.3,183 C33.3,134.3 33.5,128.5 34.4,109.3 C35.2,91.5 38.2,81.8 40.7,75.4 C44,66.9 48,60.8 54.4,54.4 C60.8,48 66.9,44.1 75.4,40.7 C81.8,38.2 91.5,35.2 109.3,34.4 C128.5,33.5 134.3,33.3 183,33.3 C231.7,33.3 237.5,33.5 256.7,34.4 C274.5,35.2 284.2,38.2 290.6,40.7 C299.1,44 305.2,48 311.6,54.4 C318,60.8 321.9,66.9 325.3,75.4 C327.8,81.8 330.8,91.5 331.6,109.3 C332.5,128.5 332.7,134.3 332.7,183 C332.7,231.7 332.4,237.5 331.6,256.7 Z" id="Shape" fill="url(#linearGradient-1)"></path>
            <path d="M183,89.3 C131.2,89.3 89.3,131.3 89.3,183 C89.3,234.8 131.3,276.7 183,276.7 C234.7,276.7 276.7,234.7 276.7,183 C276.7,131.2 234.8,89.3 183,89.3 Z M183,243.8 C149.4,243.8 122.2,216.6 122.2,183 C122.2,149.4 149.4,122.2 183,122.2 C216.6,122.2 243.8,149.4 243.8,183 C243.8,216.6 216.6,243.8 183,243.8 Z" id="Shape" fill="url(#linearGradient-2)"></path>
            <circle id="Oval" fill="#BC30A0" cx="280.4" cy="85.6" r="21.9"></circle>
            <path d="M0.5,183 C0.5,232.6 0.7,238.8 1.6,258.2 C2.5,277.6 5.6,290.9 10.1,302.5 C14.8,314.5 21,324.7 31.1,334.8 C41.2,344.9 51.4,351.2 63.4,355.8 C75,360.3 88.3,363.4 107.7,364.3 C127.2,365.2 133.4,365.4 182.9,365.4 C232.5,365.4 238.7,365.2 258.1,364.3 C277.5,363.4 290.8,360.3 302.4,355.8 C314.4,351.1 324.6,344.9 334.7,334.8 C344.8,324.7 351.1,314.5 355.7,302.5 C360.2,290.9 363.3,277.6 364.2,258.2 C365.1,238.7 365.3,232.5 365.3,183 C365.3,133.4 365.1,127.2 364.2,107.8 C363.3,88.4 360.2,75.1 355.7,63.5 C351,51.5 344.8,41.3 334.7,31.2 C324.6,21.1 314.4,14.8 302.4,10.2 C290.8,5.7 277.5,2.6 258.1,1.7 C238.6,0.8 232.4,0.6 182.9,0.6 C133.3,0.6 127.1,0.8 107.7,1.7 C88.3,2.6 75,5.7 63.4,10.2 C51.4,14.9 41.2,21.1 31.1,31.2 C21,41.3 14.7,51.5 10.1,63.5 C5.6,75.1 2.5,88.4 1.6,107.8 C0.7,127.2 0.5,133.4 0.5,183 Z M33.4,183 C33.4,134.3 33.6,128.5 34.5,109.3 C35.3,91.5 38.3,81.8 40.8,75.4 C44.1,66.9 48.1,60.8 54.5,54.4 C60.9,48 67,44.1 75.5,40.7 C81.9,38.2 91.6,35.2 109.4,34.4 C128.6,33.5 134.4,33.3 183.1,33.3 C231.8,33.3 237.6,33.5 256.8,34.4 C274.6,35.2 284.3,38.2 290.7,40.7 C299.2,44 305.3,48 311.7,54.4 C318.1,60.8 322,66.9 325.4,75.4 C327.9,81.8 330.9,91.5 331.7,109.3 C332.6,128.5 332.8,134.3 332.8,183 C332.8,231.7 332.6,237.5 331.7,256.7 C330.9,274.5 327.9,284.2 325.4,290.6 C322.1,299.1 318.1,305.2 311.7,311.6 C305.3,318 299.2,321.9 290.7,325.3 C284.3,327.8 274.6,330.8 256.8,331.6 C237.6,332.5 231.8,332.7 183.1,332.7 C134.4,332.7 128.6,332.5 109.4,331.6 C91.6,330.8 81.9,327.8 75.5,325.3 C67,322 60.9,318 54.5,311.6 C48.1,305.2 44.2,299.1 40.8,290.6 C38.3,284.2 35.3,274.5 34.5,256.7 C33.6,237.5 33.4,231.7 33.4,183 Z" id="Shape" fill="url(#linearGradient-3)"></path>
        </g>
    </g>
</svg>